<?xml version="1.0" encoding="UTF-8" standalone="no"?>
<!DOCTYPE svg PUBLIC "-//W3C//DTD SVG 1.1//EN" "http://www.w3.org/Graphics/SVG/1.1/DTD/svg11.dtd">
<svg width="100%" height="100%" viewBox="0 0 250 244" version="1.1" xmlns="http://www.w3.org/2000/svg" xmlns:xlink="http://www.w3.org/1999/xlink" xml:space="preserve" xmlns:serif="http://www.serif.com/" style="fill-rule:evenodd;clip-rule:evenodd;stroke-linejoin:round;stroke-miterlimit:2;">
    <g transform="matrix(1,0,0,1,-500,-878.458)">
        <g transform="matrix(0.73359,0,0,0.73359,239.611,266.41)">
            <g id="Symbol" transform="matrix(0.794462,0,0,0.794462,-284.546,214.453)">
                <path d="M844.342,1060.1C835.61,1043.03 820.395,1014.35 813.605,991.135C799.362,942.436 799.064,847.15 840.763,807.991C860.403,789.547 892.002,783.298 917.879,780.781C965.382,776.16 1006.81,801.93 1050.1,816.659C1086.61,829.085 1146.57,818.214 1171.31,855.842C1207.08,910.226 1263.34,1101.04 1212.73,1148.2C1175.46,1182.94 1115.9,1182.85 1068.29,1189.08C1033.62,1193.62 992.225,1204.36 958.339,1190.43C886.274,1160.79 849.353,1069.89 844.342,1060.1Z" style="fill:rgb(14,124,134);"/>
                <clipPath id="_clip1">
                    <path d="M844.342,1060.1C835.61,1043.03 820.395,1014.35 813.605,991.135C799.362,942.436 799.064,847.15 840.763,807.991C860.403,789.547 892.002,783.298 917.879,780.781C965.382,776.16 1006.81,801.93 1050.1,816.659C1086.61,829.085 1146.57,818.214 1171.31,855.842C1207.08,910.226 1263.34,1101.04 1212.73,1148.2C1175.46,1182.94 1115.9,1182.85 1068.29,1189.08C1033.62,1193.62 992.225,1204.36 958.339,1190.43C886.274,1160.79 849.353,1069.89 844.342,1060.1Z"/>
                </clipPath>
                <g clip-path="url(#_clip1)">
                    <g transform="matrix(0.254405,0,0,-0.254405,839.917,1189.35)">
                        <path d="M318,1353C297,1351 280,1346 280,1343C280,1340 289,1323 300,1305C323,1268 350,1162 350,1108L350,1070L409,1070C442,1070 481,1075 497,1082C512,1088 550,1096 580,1099L635,1105L633,1172C632,1255 603,1311 551,1336C515,1354 394,1362 318,1353Z" style="fill:rgb(250,249,247);"/>
                        <path d="M181,1330C114,1314 113,1306 156,1170L195,1049L259,1055C294,1058 326,1063 330,1065C338,1070 325,1178 309,1238C296,1284 251,1341 228,1339C221,1338 200,1334 181,1330Z" style="fill:rgb(250,249,247);"/>
                        <path d="M618,1303C642,1269 664,1168 656,1130C652,1106 655,1101 677,1095C711,1087 715,1093 713,1150C710,1213 685,1274 648,1305C609,1338 594,1337 618,1303Z" style="fill:rgb(250,249,247);"/>
                        <path d="M100,1233C100,1222 111,1178 124,1134C136,1091 157,1009 170,952C190,863 195,851 208,863C220,876 219,884 200,926C188,953 163,1035 145,1109C111,1242 100,1272 100,1233Z" style="fill:rgb(250,249,247);"/>
                        <path d="M505,1065C489,1057 463,1051 448,1050C415,1050 415,1052 441,980L462,923L561,918C649,914 664,910 686,889L712,865L691,918C679,947 654,996 635,1026C604,1074 597,1080 568,1079C550,1079 522,1072 505,1065Z" style="fill:rgb(250,249,247);"/>
                        <path d="M630,1075C630,1072 643,1049 659,1023C700,957 730,876 730,834C730,814 735,800 740,802C746,804 752,847 755,899C760,1000 750,1035 708,1064C687,1079 630,1087 630,1075Z" style="fill:rgb(250,249,247);"/>
                        <path d="M290,1039C265,1033 230,1031 213,1033C195,1034 180,1035 180,1034C180,1028 212,943 225,916C241,883 241,883 279,896C299,903 344,912 378,916C448,923 447,921 409,1008C389,1054 379,1057 290,1039Z" style="fill:rgb(250,249,247);"/>
                        <path d="M925,940C796,933 773,927 766,902C759,879 775,815 786,817C845,828 1025,841 1062,837L1110,831L1110,865C1110,901 1138,927 1166,916C1187,908 1183,928 1161,940C1140,951 1116,951 925,940Z" style="fill:rgb(250,249,247);"/>
                        <path d="M312,885C244,869 206,841 202,805C199,779 200,777 216,791C229,802 268,805 387,805L540,805L540,830C540,844 547,866 556,878L571,900L468,899C411,899 341,892 312,885Z" style="fill:rgb(250,249,247);"/>
                        <path d="M597,888C566,877 554,844 565,803L573,775L580,809C597,881 669,875 683,800C685,785 688,794 689,821C690,883 657,907 597,888Z" style="fill:rgb(250,249,247);"/>
                        <path d="M1137,894C1122,878 1130,830 1151,820C1170,809 1171,811 1168,851C1165,891 1152,909 1137,894Z" style="fill:rgb(250,249,247);"/>
                        <path d="M607,834C603,830 600,713 600,573C600,315 602,305 636,328C644,333 649,413 651,585C655,830 655,835 635,838C623,840 611,838 607,834Z" style="fill:rgb(250,249,247);"/>
                        <path d="M855,806C757,790 733,783 698,758C656,729 663,703 730,635C763,603 790,569 790,562C790,550 793,550 805,560C813,567 857,578 902,585C948,592 1032,606 1090,615C1148,624 1210,634 1229,636C1262,641 1262,642 1257,683C1253,715 1243,733 1214,758C1144,818 1032,833 855,806ZM740,694C766,672 810,604 810,585C810,568 791,584 780,610C773,627 746,659 721,680C692,706 681,720 692,720C701,720 723,708 740,694Z" style="fill:rgb(250,249,247);"/>
                        <path d="M243,784C231,781 220,773 217,767C212,755 282,394 290,387C293,385 349,371 415,356C481,342 545,327 558,324L580,318L580,531C579,706 577,749 564,765C551,783 536,785 407,787C329,788 255,786 243,784ZM416,682C425,676 441,516 441,426C441,393 415,375 386,388L361,399L367,537C372,661 379,690 400,690C403,690 410,686 416,682Z" style="fill:rgb(250,249,247);"/>
                        <path d="M390,583C390,532 385,479 380,465C373,447 373,432 380,419C397,388 409,397 400,436C393,464 395,470 406,466C417,462 418,478 413,558C406,685 390,701 390,583Z" style="fill:rgb(250,249,247);"/>
                        <path d="M1252,623C1241,619 1242,615 1254,601C1274,579 1310,485 1310,454C1310,430 1313,429 1338,435C1385,446 1402,470 1395,510C1379,596 1314,648 1252,623Z" style="fill:rgb(250,249,247);"/>
                        <path d="M1095,599C1068,594 1030,587 1012,584C981,579 979,577 994,562C1017,535 1059,438 1064,399C1066,380 1069,365 1071,365C1073,365 1123,378 1183,394L1290,423L1290,457C1290,491 1261,560 1232,593C1215,612 1177,613 1095,599Z" style="fill:rgb(250,249,247);"/>
                        <path d="M864,561C812,548 810,542 850,503C890,462 931,363 912,351C906,347 904,339 908,333C914,324 931,325 978,337C1027,349 1041,357 1046,374C1053,403 1015,502 983,540C957,571 929,576 864,561Z" style="fill:rgb(250,249,247);"/>
                        <path d="M820,504C820,498 833,473 849,448C865,423 881,393 885,381C889,368 894,360 896,363C905,371 859,477 840,495C829,505 820,509 820,504Z" style="fill:rgb(250,249,247);"/>
                    </g>
                </g>
            </g>
        </g>
    </g>
</svg>
